<?xml version="1.0" standalone="no"?>
<!DOCTYPE svg PUBLIC "-//W3C//DTD SVG 20010904//EN"
 "http://www.w3.org/TR/2001/REC-SVG-20010904/DTD/svg10.dtd">
<svg version="1.0" xmlns="http://www.w3.org/2000/svg"
 width="2188.000000pt" height="1952.000000pt" viewBox="0 0 2188.000000 1952.000000"
 preserveAspectRatio="xMidYMid meet">

<g transform="translate(0.000000,1952.000000) scale(0.100000,-0.100000)"
fill="#3B82F6" stroke="none">
<path d="M8620 17715 c-281 -97 -872 -302 -1050 -365 -96 -34 -368 -129 -605
-210 -421 -145 -852 -296 -1505 -525 -179 -63 -469 -164 -645 -225 -838 -292
-1216 -424 -1395 -488 -107 -38 -244 -86 -305 -106 -60 -20 -117 -41 -125 -46
-13 -8 -15 -151 -18 -1167 -4 -1620 10 -2022 99 -2703 58 -445 174 -1025 289
-1445 28 -100 50 -192 50 -204 0 -12 -29 -94 -65 -183 -185 -452 -303 -935
-355 -1448 -26 -263 -30 -708 -30 -3801 0 -2707 2 -3228 14 -3238 16 -13 5849
-11 5863 2 4 5 10 529 13 1165 l5 1157 280 140 c397 198 692 371 1040 611 302
208 620 449 785 594 127 112 192 162 201 153 5 -5 10 -853 11 -1918 l3 -1910
1755 -3 c1609 -2 1756 -1 1767 14 9 13 11 735 7 3173 -3 1736 -1 3176 3 3200
l8 45 72 -80 c39 -43 203 -230 364 -414 443 -508 607 -676 884 -909 366 -306
882 -633 1225 -776 36 -15 109 -47 163 -72 l97 -46 0 -751 c0 -695 -2 -758
-19 -841 -22 -105 -53 -180 -109 -262 -102 -149 -268 -241 -442 -246 l-75 -2
-5 565 c-3 311 -9 571 -13 578 -6 9 -184 12 -833 12 l-824 0 -1 -147 c-3 -934
3 -3029 10 -3036 13 -13 2149 -2 2256 12 467 62 886 234 1258 515 577 435 944
1033 1062 1728 37 223 45 390 45 1046 l0 602 23 10 c12 5 86 25 164 45 418
103 788 269 1158 519 202 137 367 274 607 505 l98 94 0 108 0 108 -32 -5
c-210 -27 -946 -48 -1266 -34 -230 9 -528 36 -677 60 -33 5 -63 10 -67 10 -5
0 -8 1381 -8 3069 0 2058 -3 3079 -10 3096 -6 15 -38 62 -73 104 -34 42 -136
168 -226 281 -151 188 -320 396 -542 670 -47 58 -243 299 -435 535 -561 690
-722 888 -846 1044 -65 80 -130 154 -145 163 -26 17 -123 18 -1608 18 l-1580
0 -125 44 c-346 122 -1291 450 -1555 541 -165 57 -406 140 -535 185 -269 94
-308 107 -2345 807 -791 271 -978 333 -1005 332 -14 0 -95 -24 -180 -54z
m1080 -1130 c102 -35 520 -179 930 -320 410 -141 907 -312 1105 -380 198 -68
610 -210 915 -315 305 -106 600 -207 654 -226 l100 -34 1940 0 1941 -1 240
-296 c132 -162 408 -503 614 -757 206 -253 508 -625 671 -826 162 -201 335
-413 383 -472 l87 -106 0 -2921 0 -2921 -27 6 c-56 14 -231 77 -347 125 -506
212 -971 528 -1382 936 -206 205 -345 374 -587 711 -80 112 -148 204 -151 205
-8 3 -603 -458 -1153 -895 -88 -70 -164 -128 -167 -128 -4 0 -21 17 -39 37
-31 36 -336 381 -846 957 -141 159 -293 332 -338 383 l-83 93 -1 -2377 c-1
-1308 -3 -2495 -5 -2638 -2 -143 -3 -724 -4 -1292 l0 -1031 -122 4 c-68 2
-127 4 -133 5 -5 0 -71 -1 -145 -4 -79 -3 -140 -1 -147 4 -7 7 -13 6 -17 0 -4
-6 -13 -8 -22 -4 -8 3 -11 10 -7 17 5 7 0 3 -10 -7 -13 -15 -20 -17 -31 -8
-10 8 -16 9 -21 1 -9 -14 -58 -13 -74 2 -11 10 -13 10 -7 1 5 -9 0 -13 -16
-12 -25 0 -71 17 -50 18 6 1 12 7 12 14 -1 6 -10 1 -20 -12 -18 -21 -20 -21
-21 -5 -1 16 -2 16 -6 3 -3 -12 -15 -17 -44 -16 -21 1 -39 6 -39 11 0 7 -3 8
-8 1 -10 -13 -42 -18 -42 -6 0 5 -8 7 -17 5 -47 -9 -110 -11 -131 -3 -14 5
-21 5 -18 0 9 -14 -356 -11 -373 3 -10 7 -13 7 -8 0 4 -8 -31 -10 -121 -9 -70
1 -131 3 -137 5 -5 1 -12 1 -15 0 -19 -7 -280 -5 -280 3 0 5 -8 6 -17 1 -29
-13 -236 -13 -252 0 -11 8 -13 8 -7 -1 5 -10 -5 -13 -38 -13 l-46 0 0 1133
c-1 622 -3 1205 -6 1294 l-5 163 48 52 c100 108 134 147 269 303 222 259 433
529 638 813 21 28 34 52 29 52 -4 0 0 5 10 11 9 6 15 15 12 20 -4 5 -12 6 -18
2 -8 -5 -8 -2 0 9 7 8 9 19 5 23 -4 5 -1 5 6 1 6 -4 12 -2 12 3 0 6 -5 11 -11
11 -6 0 -9 6 -6 14 4 10 -3 13 -25 12 -23 -1 -32 4 -34 17 -2 15 0 16 12 6 17
-14 29 -6 18 13 -13 20 -14 39 -2 32 7 -4 8 -2 4 4 -5 9 -12 9 -26 0 -10 -7
-17 -16 -14 -20 3 -4 -3 -5 -12 -1 -10 4 -13 8 -7 10 6 2 9 13 6 23 -3 11 -9
17 -14 14 -5 -3 -6 -10 -3 -16 4 -7 2 -8 -4 -4 -13 8 -35 -28 -24 -39 4 -4 0
-6 -8 -3 -8 3 -15 11 -14 19 1 8 -9 15 -23 15 -25 2 -29 -6 -11 -24 9 -9 6
-11 -10 -7 -12 2 -22 -1 -22 -6 0 -6 -4 -7 -10 -4 -5 3 -10 -1 -10 -9 0 -10
-9 -16 -21 -16 -16 0 -19 4 -14 20 5 15 3 18 -9 14 -8 -3 -12 -12 -9 -20 3 -8
1 -14 -4 -14 -5 0 -10 11 -11 26 -1 17 2 23 11 18 8 -5 9 -4 2 4 -5 6 -21 12
-35 14 -17 2 -25 9 -25 22 0 21 -24 29 -46 15 -21 -13 -3 -22 20 -9 15 7 21 7
21 0 0 -17 -28 -23 -59 -12 -26 9 -29 8 -28 -8 1 -14 4 -16 14 -8 10 8 13 6
13 -6 0 -9 -7 -16 -15 -16 -8 0 -15 -5 -15 -11 0 -5 -4 -7 -10 -4 -5 3 -10 2
-10 -4 0 -5 4 -11 9 -13 16 -5 -15 -39 -37 -41 -11 0 -18 -5 -15 -10 3 -4 18
-5 34 -2 18 4 29 3 29 -4 0 -6 5 -11 11 -11 7 0 5 10 -6 26 -16 25 -16 25 5
14 14 -7 25 -8 33 -2 13 11 103 10 113 -1 4 -4 1 -7 -6 -7 -11 0 -11 -3 -2
-12 17 -17 15 -26 -10 -39 -17 -9 -20 -9 -15 4 4 11 0 13 -14 10 -13 -4 -19 0
-19 11 0 9 5 16 11 16 5 0 7 -6 3 -12 -5 -9 -2 -8 10 1 32 26 -12 35 -64 13
-24 -10 -16 -16 20 -13 9 0 10 -2 3 -5 -7 -3 -9 -12 -6 -21 4 -10 2 -14 -4
-10 -6 4 -13 1 -16 -5 -3 -10 -9 -10 -27 0 -18 11 -21 11 -15 0 3 -7 0 -4 -9
6 -8 10 -13 23 -9 29 4 6 1 7 -6 3 -7 -5 -10 -14 -7 -22 3 -8 -1 -14 -9 -14
-8 0 -12 6 -9 13 2 7 -4 13 -16 14 -11 1 -20 -2 -20 -8 0 -5 5 -9 10 -9 6 0 9
-6 8 -12 -2 -7 3 -12 10 -10 8 1 11 -2 7 -8 -3 -6 -11 -8 -16 -5 -5 4 -9 1 -9
-6 0 -7 -3 -9 -7 -6 -3 4 -13 1 -21 -6 -12 -9 -12 -6 1 14 23 35 8 46 -63 44
-30 -1 -61 3 -67 8 -9 6 -13 6 -13 -2 0 -17 -16 -13 -18 4 -1 8 -3 21 -4 29
-1 8 -7 12 -15 9 -10 -4 -11 -9 -2 -19 7 -9 8 -14 1 -14 -5 0 -13 8 -17 18 -6
16 -7 16 -21 -2 -7 -11 -17 -16 -21 -12 -4 4 -1 11 6 15 9 6 10 11 2 15 -16
10 -25 -22 -11 -39 6 -8 10 -20 7 -27 -3 -8 -6 -5 -6 6 -1 18 -2 18 -20 2 -19
-17 -19 -17 -7 16 23 59 35 83 35 69 1 -8 4 -12 7 -8 3 3 3 11 -1 17 -5 8 -10
8 -20 0 -11 -10 -13 -8 -10 9 6 33 -16 37 -41 8 -13 -15 -27 -27 -31 -27 -4 0
15 24 43 52 419 432 929 1092 1268 1640 290 472 593 1080 762 1533 l49 130 0
1552 c0 853 -3 1549 -6 1547 -3 -2 -9 -45 -13 -96 -31 -405 -175 -1062 -356
-1623 -248 -766 -637 -1691 -973 -2310 -95 -176 -317 -538 -363 -594 -2 -2
-144 48 -316 112 -172 63 -464 170 -648 238 l-336 122 -38 66 c-21 36 -94 156
-161 266 -68 110 -322 526 -565 925 -244 399 -517 847 -608 995 -91 149 -202
331 -247 405 -45 74 -119 195 -164 269 l-83 135 0 2705 c1 1488 1 2707 2 2708
0 1 98 -32 218 -73 119 -42 300 -104 402 -139z m-5921 -7436 c256 -634 550
-1192 918 -1742 565 -845 1346 -1691 2146 -2324 157 -124 152 -119 136 -128
-7 -5 -10 -4 -5 3 3 6 2 13 -4 17 -5 3 -10 1 -10 -6 0 -7 -8 -5 -21 7 -14 13
-19 14 -17 4 6 -28 -48 -20 -83 12 -25 22 -29 29 -15 26 10 -1 20 3 22 10 1 7
0 8 -3 2 -2 -5 -8 -8 -12 -6 -4 3 -24 1 -44 -4 -24 -5 -39 -4 -44 3 -3 5 -2 7
3 4 6 -3 16 -2 24 4 11 6 8 9 -12 9 -32 0 -35 -11 -12 -34 12 -13 12 -16 2
-16 -8 0 -20 6 -28 13 -7 6 -3 -6 9 -28 l22 -40 -25 28 c-30 32 -40 34 -33 7
3 -11 1 -18 -4 -14 -5 3 -9 -3 -10 -13 0 -13 -3 -12 -10 7 -10 24 -26 40 -42
40 -5 0 -5 -5 -2 -10 3 -6 -1 -13 -10 -17 -10 -3 -21 0 -26 8 -7 12 -9 12 -9
-1 0 -12 -2 -12 -9 -2 -6 10 -10 9 -14 -7 -6 -25 11 -39 25 -20 8 12 9 11 5
-1 -2 -8 -12 -14 -21 -14 -19 2 -21 -7 -3 -26 10 -12 9 -12 -6 0 -12 9 -17 22
-14 37 3 15 -1 23 -9 23 -8 0 -11 -6 -8 -15 11 -27 -3 -16 -24 18 -18 31 -52
47 -52 24 0 -5 7 -6 15 -3 11 4 15 0 13 -12 -2 -11 2 -16 12 -14 8 2 11 0 7
-4 -12 -12 -37 -13 -34 -2 1 6 -4 13 -12 16 -10 3 -12 0 -7 -13 5 -15 4 -16
-8 -6 -8 7 -21 10 -28 6 -7 -4 -5 0 5 8 16 13 16 15 2 21 -9 3 -13 2 -10 -4 3
-6 -1 -10 -9 -10 -10 0 -13 6 -9 17 6 15 5 16 -9 3 -11 -10 -13 -19 -6 -27 5
-7 7 -17 3 -23 -5 -8 3 -10 24 -7 21 4 31 1 31 -8 0 -7 9 -15 20 -18 11 -3 20
-1 20 5 0 5 5 6 10 3 6 -3 10 -1 10 5 0 6 5 8 10 5 6 -3 10 -11 10 -16 0 -6
-4 -8 -9 -5 -5 3 -12 -1 -15 -9 -4 -13 -10 -14 -26 -5 -13 7 -20 7 -20 0 0 -5
-5 -10 -11 -10 -5 0 -8 4 -5 8 3 4 -11 9 -31 9 -24 1 -31 -2 -22 -8 10 -6 8
-8 -7 -7 -12 1 -21 9 -20 16 1 8 -5 17 -13 20 -8 2 -11 0 -8 -5 3 -5 -9 -7
-29 -5 -19 2 -37 8 -40 13 -3 5 2 6 10 3 8 -3 30 -1 50 5 20 5 34 6 31 1 -3
-4 1 -10 8 -13 7 -3 13 5 13 20 2 18 -2 23 -13 19 -8 -4 -11 -1 -7 5 3 6 -8 4
-24 -5 -33 -17 -82 -18 -79 -1 1 5 -4 9 -10 8 -7 -2 -13 2 -13 7 0 6 7 10 15
10 18 0 20 16 3 17 -7 0 -22 4 -33 9 -18 7 -18 6 -6 -9 10 -12 10 -17 2 -17
-8 0 -7 -6 3 -16 18 -17 13 -34 -10 -34 -9 0 -12 5 -8 12 4 7 3 8 -5 4 -6 -4
-24 -9 -39 -12 -15 -3 -35 -7 -44 -10 -18 -5 -42 28 -30 41 4 5 1 5 -6 1 -9
-5 -9 -12 -2 -27 8 -13 7 -19 0 -19 -6 0 -8 -5 -4 -11 5 -8 9 -8 14 1 5 8 10
8 14 2 3 -5 -1 -12 -8 -15 -17 -7 -39 16 -28 28 4 4 -6 5 -21 1 -19 -4 -26 -3
-22 4 4 6 -6 10 -25 10 -24 0 -31 4 -27 15 4 8 2 17 -4 20 -5 4 -6 11 -3 17 4
7 2 8 -5 4 -8 -5 -9 -12 -2 -19 6 -8 4 -16 -5 -25 -11 -10 -14 -10 -14 0 0 9
-3 9 -12 0 -8 -8 -15 -8 -24 -1 -7 6 -15 6 -18 1 -6 -10 2 -18 204 -198 169
-150 394 -335 569 -467 155 -117 150 -113 319 -231 70 -49 129 -91 131 -92 2
-2 -125 -205 -281 -451 -269 -422 -738 -1167 -841 -1334 l-46 -76 -75 1 c-63
1 -78 4 -90 21 l-15 20 2 -20 c2 -20 -4 -20 -923 -20 -817 0 -925 2 -922 15 2
12 -1 11 -11 -2 -11 -14 -28 -18 -81 -17 -36 1 -66 5 -66 11 0 5 -10 6 -22 2
-36 -12 -88 -12 -88 0 0 7 -3 7 -8 -1 -8 -13 -37 -12 -49 2 -4 4 -2 5 5 1 6
-4 12 -5 12 -2 0 3 -8 10 -19 15 -15 8 -18 7 -17 -6 0 -10 -7 -19 -16 -21 -16
-3 -18 19 -20 300 -9 895 -7 5769 2 5903 20 300 55 558 104 777 33 145 67 270
73 264 2 -2 39 -91 82 -197z m12995 -1061 c311 -393 676 -726 1126 -1023 345
-229 652 -384 1025 -517 411 -147 931 -247 1380 -264 88 -4 166 -10 173 -14
34 -17 -408 -185 -631 -239 -809 -196 -1678 -76 -2529 350 -308 154 -656 386
-963 640 -115 95 -528 505 -523 519 4 13 826 670 838 670 4 0 51 -55 104 -122z
m-4419 -2017 c-3 -5 -1 -13 5 -16 17 -11 -8 -34 -30 -28 -24 6 -22 24 5 39 26
15 27 16 20 5z m-72 -41 c3 -11 1 -20 -4 -20 -5 0 -9 9 -9 20 0 11 2 20 4 20
2 0 6 -9 9 -20z m247 4 c0 -8 -19 -13 -24 -6 -3 5 1 9 9 9 8 0 15 -2 15 -3z
m-29 -21 c13 -16 12 -17 -3 -4 -17 13 -22 21 -14 21 2 0 10 -8 17 -17z m-38
-23 c-4 -13 0 -20 10 -20 8 0 17 -6 20 -14 4 -11 1 -11 -19 -2 -23 11 -32 35
-17 49 10 11 11 8 6 -13z m82 0 c3 -5 1 -10 -4 -10 -6 0 -11 5 -11 10 0 6 2
10 4 10 3 0 8 -4 11 -10z m-735 -16 c0 -8 -19 -13 -24 -6 -3 5 1 9 9 9 8 0 15
-2 15 -3z m754 -12 c7 -12 -12 -38 -21 -28 -4 5 -2 11 6 14 11 4 11 6 0 13 -9
6 -10 9 -2 9 6 0 14 -4 17 -8z m-569 -51 c-6 -5 -25 10 -25 20 0 5 6 4 14 -3
8 -7 12 -15 11 -17z m-255 5 c0 -3 -4 -8 -10 -11 -5 -3 -10 -1 -10 4 0 6 5 11
10 11 6 0 10 -2 10 -4z m707 -82 c-3 -3 -12 -4 -19 -1 -8 3 -5 6 6 6 11 1 17
-2 13 -5z m-33 -42 c3 -5 -1 -9 -9 -9 -8 0 -12 4 -9 9 3 4 7 8 9 8 2 0 6 -4 9
-8z m6359 -404 c23 4 22 -4 -3 -11 -11 -3 -25 2 -32 11 -11 13 -11 14 2 7 8
-5 23 -8 33 -7z m194 -14 c-3 -3 -12 -4 -19 -1 -8 3 -5 6 6 6 11 1 17 -2 13
-5z m60 0 c-3 -3 -12 -4 -19 -1 -8 3 -5 6 6 6 11 1 17 -2 13 -5z m186 -1 c-7
-2 -19 -2 -25 0 -7 3 -2 5 12 5 14 0 19 -2 13 -5z m-353 -47 c0 -2 -8 -10 -17
-17 -16 -13 -17 -12 -4 4 13 16 21 21 21 13z m187 -30 c0 -8 -6 -12 -15 -9
-11 5 -11 7 0 14 7 5 13 9 14 9 0 0 1 -6 1 -14z m53 4 c0 -5 -5 -10 -11 -10
-5 0 -7 5 -4 10 3 6 8 10 11 10 2 0 4 -4 4 -10z m30 -30 c0 -5 -4 -10 -9 -10
-6 0 -13 5 -16 10 -3 6 1 10 9 10 9 0 16 -4 16 -10z m-145 -20 c17 -19 17 -19
-8 -7 -14 6 -23 15 -21 19 7 11 9 10 29 -12z m-205 -125 c0 -1 -12 -2 -26 -2
-17 0 -22 2 -13 7 10 7 39 3 39 -5z m-6 -66 c-8 -14 -24 -10 -24 6 0 9 6 12
15 9 8 -4 12 -10 9 -15z m501 -564 c-1 -354 -4 -438 -19 -535 -78 -492 -293
-911 -638 -1246 -189 -182 -335 -285 -582 -405 -226 -111 -457 -176 -706 -199
-141 -13 -582 -11 -574 2 4 6 -3 5 -15 -1 -18 -10 -21 -9 -22 11 l0 23 -9 -22
c-8 -19 -14 -21 -67 -16 -76 7 -73 7 -112 -2 -27 -6 -32 -4 -25 6 6 11 5 12
-7 3 -9 -8 -130 -12 -381 -13 l-368 -1 0 1045 0 1045 286 0 286 0 -3 -562 c-1
-310 -1 -571 0 -580 1 -17 24 -18 324 -18 452 0 562 16 752 109 295 144 523
414 619 733 52 169 56 226 56 705 l0 445 23 -6 c182 -55 464 -110 607 -120 41
-3 65 -2 52 0 -21 5 -22 10 -20 70 2 63 10 79 22 48 4 -10 2 -13 -6 -8 -7 4
-8 3 -4 -5 6 -9 11 -9 21 -1 10 8 19 8 32 1 16 -9 14 -11 -15 -17 -23 -5 -29
-9 -21 -15 7 -4 18 -4 25 2 12 10 52 -26 41 -38 -4 -3 -7 -2 -7 4 0 6 -7 14
-16 17 -13 5 -14 4 -6 -7 7 -8 9 -17 5 -20 -3 -4 3 -7 15 -7 11 0 23 -3 26 -8
2 -4 -11 -7 -30 -6 -19 1 -34 -2 -34 -6 0 -14 44 -20 189 -27 108 -5 142 -3
137 5 -5 8 1 12 16 12 18 0 20 2 8 10 -10 7 -11 10 -2 10 16 0 34 46 34 83 0
15 3 25 8 22 5 -3 24 3 43 14 19 11 38 17 41 14 3 -4 7 0 8 8 7 60 14 -207 13
-556z m-120 495 c3 -6 -4 -10 -17 -10 -18 0 -20 2 -8 10 19 12 18 12 25 0z
m-13251 -69 c-2 -3 -12 3 -22 13 -16 17 -16 18 5 5 12 -7 20 -15 17 -18z m947
-4 c-10 -9 -11 -8 -5 6 3 10 9 15 12 12 3 -3 0 -11 -7 -18z m-607 -2 c3 -8 -1
-16 -9 -19 -9 -3 -12 0 -9 8 3 9 -4 11 -26 8 -16 -2 -30 -8 -30 -11 0 -4 -7
-8 -15 -8 -8 0 -15 4 -15 9 0 4 7 8 16 8 8 0 13 3 10 8 -2 4 13 8 34 8 23 1
41 -4 44 -11z m506 -6 c0 -12 -27 -18 -51 -12 -20 6 -20 7 -5 13 23 8 56 7 56
-1z m-117 -14 c-3 -9 -8 -14 -10 -11 -3 3 -2 9 2 15 9 16 15 13 8 -4z m43 -72
c-11 -11 -17 4 -9 23 7 18 8 18 11 1 2 -10 1 -21 -2 -24z m-475 14 c-6 -8 -9
-16 -6 -19 3 -3 -1 -11 -9 -17 -11 -10 -14 -9 -12 2 2 16 25 47 33 47 3 0 0
-6 -6 -13z m679 3 c0 -5 -4 -10 -10 -10 -5 0 -10 5 -10 10 0 6 5 10 10 10 6 0
10 -4 10 -10z m-444 -9 c-4 -5 0 -11 6 -14 7 -3 3 -4 -9 -4 -17 1 -19 4 -11
14 12 15 22 18 14 4z m374 -11 c-8 -6 -26 -9 -40 -8 l-25 1 25 4 c14 3 29 9
34 14 5 5 12 6 15 3 3 -3 -1 -9 -9 -14z m-290 -16 c0 -2 -9 -4 -20 -4 -11 0
-20 4 -20 9 0 5 9 7 20 4 11 -3 20 -7 20 -9z m-154 -86 c-10 -6 -20 -7 -24 -3
-9 8 20 25 31 18 5 -3 2 -10 -7 -15z m149 12 c3 -5 1 -10 -4 -10 -6 0 -11 5
-11 10 0 6 2 10 4 10 3 0 8 -4 11 -10z m-60 -9 c3 -5 0 -13 -6 -17 -7 -4 -9
-3 -5 4 3 6 -2 13 -11 15 -16 4 -16 5 -1 6 9 0 19 -3 23 -8z m-179 -32 c1 -13
0 -18 -2 -11 -3 6 -11 9 -17 5 -8 -4 -7 -1 1 9 9 11 9 18 2 21 -6 3 -6 5 1 3
7 -1 13 -13 15 -27z m1044 -199 c0 -5 -4 -10 -10 -10 -5 0 -10 5 -10 10 0 6 5
10 10 10 6 0 10 -4 10 -10z m63 -7 c-7 -2 -13 -8 -13 -13 0 -5 6 -10 13 -13 6
-2 4 -3 -5 -2 -23 4 -35 -15 -17 -26 7 -4 11 -10 9 -13 -3 -2 -13 1 -23 9 -17
12 -16 14 5 39 13 14 28 25 33 25 6 0 4 -3 -2 -6z"/>
<path d="M12780 6241 c0 -6 4 -13 10 -16 6 -3 7 1 4 9 -7 18 -14 21 -14 7z"/>
<path d="M12670 6231 c0 -6 5 -13 12 -17 7 -5 8 -3 3 6 -5 9 -2 10 13 6 11 -4
23 -3 25 2 3 4 -8 9 -24 10 -16 1 -29 -2 -29 -7z"/>
<path d="M12211 6213 c-7 -8 -10 -17 -7 -20 9 -9 29 13 25 25 -2 6 -10 3 -18
-5z"/>
<path d="M12435 6220 c3 -5 8 -10 11 -10 2 0 4 5 4 10 0 6 -5 10 -11 10 -5 0
-7 -4 -4 -10z"/>
<path d="M12151 6194 c0 -11 3 -14 6 -6 3 7 2 16 -1 19 -3 4 -6 -2 -5 -13z"/>
<path d="M12320 6200 c-8 -5 -10 -10 -5 -10 6 0 17 5 25 10 8 5 11 10 5 10 -5
0 -17 -5 -25 -10z"/>
<path d="M12239 6193 c-1 -5 -1 -12 0 -16 1 -5 -9 -6 -21 -3 -13 3 -17 3 -10
0 10 -5 10 -9 1 -20 -10 -12 -9 -13 5 -8 12 5 15 2 10 -10 -4 -9 -1 -16 6 -16
7 0 10 -7 7 -15 -4 -8 -3 -17 2 -19 4 -3 8 1 9 9 1 8 3 21 4 29 1 8 8 12 17 8
11 -4 9 3 -7 25 -16 23 -19 33 -10 36 10 4 10 6 1 6 -7 1 -14 -2 -14 -6z"/>
<path d="M12785 6192 c-21 -7 -26 -25 -11 -39 5 -4 6 -3 3 3 -7 11 19 29 36
25 5 -1 6 3 2 9 -3 5 -7 10 -8 9 -1 -1 -11 -4 -22 -7z"/>
<path d="M12668 6176 c-17 -9 -30 -10 -36 -4 -6 6 -12 3 -16 -7 -3 -9 -2 -13
4 -10 6 3 10 1 10 -5 0 -8 -11 -10 -32 -6 -25 5 -28 4 -13 -3 14 -7 16 -10 5
-11 -8 -2 -18 -2 -22 -1 -5 0 -8 -3 -8 -8 0 -14 27 -20 38 -9 23 23 87 44 112
37 19 -5 20 -7 6 -8 -11 -1 -16 -4 -12 -8 10 -10 37 -13 31 -3 -3 5 1 11 7 13
10 4 10 6 1 6 -7 1 -14 11 -14 24 -1 17 -2 18 -6 4 -5 -19 -30 -17 -25 2 3 14
3 14 -30 -3z"/>
<path d="M12822 6175 c-39 -21 -73 -55 -67 -65 10 -16 24 -12 51 15 29 29 34
31 34 10 0 -9 -10 -20 -22 -25 -21 -8 -21 -9 -3 -9 13 -1 28 13 44 42 13 23
18 36 10 30 -18 -18 -32 -16 -25 2 3 8 4 15 3 14 -1 -1 -12 -7 -25 -14z"/>
<path d="M12104 6148 c-4 -7 -3 -8 5 -4 17 11 83 -58 75 -78 -3 -9 -11 -13
-18 -9 -6 3 -8 3 -4 -2 4 -4 -1 -20 -12 -34 -13 -19 -16 -31 -9 -42 8 -12 10
-12 8 1 -1 8 1 23 6 33 7 17 8 17 29 0 11 -10 16 -12 9 -4 -12 15 -1 70 17 81
14 9 3 37 -14 37 -9 0 -12 -7 -8 -16 3 -9 -11 -1 -31 17 -42 36 -43 36 -53 20z"/>
<path d="M12435 6150 c-3 -5 -1 -10 4 -10 6 0 11 5 11 10 0 6 -2 10 -4 10 -3
0 -8 -4 -11 -10z"/>
<path d="M12545 6139 c-4 -6 -5 -12 -2 -15 2 -3 7 2 10 11 7 17 1 20 -8 4z"/>
<path d="M12505 6129 c-4 -5 -13 -8 -21 -5 -12 5 -12 2 -3 -15 8 -15 8 -19 0
-15 -6 4 -11 2 -11 -4 0 -6 -10 -1 -22 12 -13 13 -16 15 -8 4 14 -18 13 -19
-2 -13 -12 4 -15 2 -11 -9 3 -7 8 -14 12 -15 60 -8 67 -6 63 22 -3 20 1 28 15
31 12 2 14 6 6 11 -6 4 -15 2 -18 -4z"/>
<path d="M12397 6123 c-4 -3 -7 -11 -7 -17 0 -6 5 -5 12 2 6 6 9 14 7 17 -3 3
-9 2 -12 -2z"/>
<path d="M12687 6103 c-4 -3 1 -12 11 -20 9 -8 11 -12 5 -8 -20 10 -36 -4 -23
-20 7 -8 10 -18 7 -22 -6 -10 50 -9 60 0 10 11 23 8 23 -4 0 -5 -3 -8 -8 -5
-4 2 -16 -2 -27 -10 -10 -8 -14 -14 -7 -14 6 0 9 -7 6 -15 -4 -8 -1 -15 6 -15
6 0 8 5 5 10 -3 6 -2 10 4 10 6 0 18 11 27 25 12 19 14 28 5 39 -9 10 -7 17 6
27 16 13 17 12 5 -3 -8 -10 -9 -19 -3 -22 5 -4 12 -2 16 4 3 5 3 10 -2 10 -4
0 -1 5 7 10 13 9 13 10 0 11 -8 1 -22 1 -32 0 -9 -1 -19 3 -23 9 -7 11 -58 14
-68 3z m73 -37 c0 -6 -5 -3 -11 7 -6 9 -15 14 -21 11 -7 -4 -8 -2 -4 5 9 14
36 -3 36 -23z m-35 -16 c-3 -5 -12 -10 -18 -10 -7 0 -6 4 3 10 19 12 23 12 15
0z"/>
<path d="M12100 6050 c-9 -6 -10 -10 -3 -10 6 0 15 5 18 10 8 12 4 12 -15 0z"/>
<path d="M11830 2669 c0 -5 5 -7 10 -4 6 3 10 8 10 11 0 2 -4 4 -10 4 -5 0
-10 -5 -10 -11z"/>
<path d="M11977 2592 c-16 -17 -21 -76 -7 -67 4 2 6 14 5 27 -1 13 5 31 13 41
20 23 10 22 -11 -1z"/>
<path d="M11896 2592 c-3 -5 1 -9 9 -9 8 0 12 4 9 9 -3 4 -7 8 -9 8 -2 0 -6
-4 -9 -8z"/>
<path d="M11935 2579 c-4 -6 -5 -12 -2 -15 2 -3 7 2 10 11 7 17 1 20 -8 4z"/>
<path d="M11836 2542 c-3 -5 1 -9 9 -9 8 0 12 4 9 9 -3 4 -7 8 -9 8 -2 0 -6
-4 -9 -8z"/>
<path d="M12006 2541 c-3 -5 1 -11 9 -14 9 -4 12 -1 8 9 -6 16 -10 17 -17 5z"/>
<path d="M11744 2531 c5 -8 4 -16 -4 -21 -8 -5 -7 -9 5 -13 9 -4 14 -3 10 2
-3 5 0 11 6 13 7 2 4 10 -7 18 -13 11 -16 12 -10 1z"/>
<path d="M11795 2500 c-3 -5 -1 -10 4 -10 6 0 11 5 11 10 0 6 -2 10 -4 10 -3
0 -8 -4 -11 -10z"/>
<path d="M11876 2492 c-2 -4 4 -9 15 -9 11 -1 17 2 14 8 -7 11 -22 12 -29 1z"/>
<path d="M12059 2483 c-13 -16 -12 -17 4 -4 16 13 21 21 13 21 -2 0 -10 -8
-17 -17z"/>
<path d="M12276 2473 c-6 -14 -5 -15 5 -6 7 7 10 15 7 18 -3 3 -9 -2 -12 -12z"/>
<path d="M12485 2480 c-3 -5 -3 -10 2 -10 4 0 1 -5 -7 -11 -12 -8 -12 -10 -1
-7 8 2 15 12 17 21 3 19 -2 22 -11 7z"/>
<path d="M12656 2477 c3 -10 9 -15 12 -12 3 3 0 11 -7 18 -10 9 -11 8 -5 -6z"/>
<path d="M12691 2476 c-9 -10 -8 -15 2 -19 8 -3 13 3 14 14 2 23 -1 24 -16 5z"/>
<path d="M12180 2472 c0 -6 -8 -13 -17 -15 -16 -4 -16 -5 -1 -6 18 -1 34 16
24 26 -3 4 -6 1 -6 -5z"/>
<path d="M12200 2469 c0 -5 5 -7 10 -4 6 3 10 8 10 11 0 2 -4 4 -10 4 -5 0
-10 -5 -10 -11z"/>
<path d="M12440 2464 c0 -8 5 -12 10 -9 6 4 8 11 5 16 -9 14 -15 11 -15 -7z"/>
<path d="M12731 2471 c-7 -5 -10 -14 -7 -20 11 -17 29 -13 22 5 -4 10 -2 13 6
8 7 -4 8 -3 4 4 -8 14 -7 14 -25 3z"/>
<path d="M12772 2468 c-15 -15 -16 -31 0 -26 6 2 12 12 14 21 3 20 2 21 -14 5z"/>
<path d="M12245 2460 c-3 -5 -1 -10 4 -10 6 0 11 5 11 10 0 6 -2 10 -4 10 -3
0 -8 -4 -11 -10z"/>
<path d="M12517 2459 c7 -7 15 -10 18 -7 3 3 -2 9 -12 12 -14 6 -15 5 -6 -5z"/>
<path d="M12603 2444 c0 -14 0 -24 1 -22 1 2 7 10 14 19 10 14 10 18 -1 22
-10 4 -14 -2 -14 -19z"/>
<path d="M12805 2460 c-3 -5 -2 -10 4 -10 5 0 13 5 16 10 3 6 2 10 -4 10 -5 0
-13 -4 -16 -10z"/>
<path d="M12090 2440 c-9 -6 -10 -10 -3 -10 6 0 15 5 18 10 8 12 4 12 -15 0z"/>
<path d="M11775 2400 c3 -5 8 -10 11 -10 2 0 4 5 4 10 0 6 -5 10 -11 10 -5 0
-7 -4 -4 -10z"/>
<path d="M12883 2395 c0 -8 4 -12 9 -9 5 3 6 10 3 15 -9 13 -12 11 -12 -6z"/>
<path d="M13127 2353 c-10 -9 -9 -53 1 -53 5 0 8 14 8 30 0 33 0 33 -9 23z"/>
<path d="M13642 2348 c2 -8 -4 -12 -14 -10 -10 2 -18 -2 -18 -7 0 -19 18 -20
34 -2 12 13 14 21 6 26 -6 4 -9 1 -8 -7z"/>
<path d="M13016 2337 c3 -10 9 -15 12 -12 3 3 0 11 -7 18 -10 9 -11 8 -5 -6z"/>
<path d="M13075 2340 c-3 -5 -1 -19 5 -30 15 -28 21 -25 10 4 -6 17 -5 26 3
30 9 3 9 5 0 5 -6 1 -15 -3 -18 -9z"/>
<path d="M11770 2330 c0 -5 5 -10 10 -10 6 0 10 5 10 10 0 6 -4 10 -10 10 -5
0 -10 -4 -10 -10z"/>
<path d="M13159 2324 c-7 -9 -6 -12 5 -10 9 1 18 5 22 8 3 4 12 4 20 1 8 -3
14 0 14 6 0 14 -48 10 -61 -5z"/>
<path d="M12853 2323 c-18 -7 -16 -20 2 -20 8 0 12 4 9 8 -2 4 6 10 18 12 19
4 20 4 3 5 -11 0 -26 -2 -32 -5z"/>
<path d="M11960 2309 c0 -8 12 -22 25 -32 23 -16 24 -16 18 -1 -4 12 -3 15 5
10 8 -5 10 -2 6 8 -7 19 -24 21 -24 4 0 -8 -7 -5 -15 6 -11 14 -15 16 -15 5z"/>
<path d="M12120 2310 c0 -5 7 -7 15 -4 8 4 15 8 15 10 0 2 -7 4 -15 4 -8 0
-15 -4 -15 -10z"/>
<path d="M12395 2299 c-22 -8 -21 -9 13 -13 13 -2 26 2 29 7 3 6 1 7 -5 3 -5
-3 -12 -2 -14 3 -1 4 -12 5 -23 0z"/>
<path d="M12480 2306 c0 -2 8 -10 18 -17 15 -13 16 -12 3 4 -13 16 -21 21 -21
13z"/>
<path d="M12572 2301 c-11 -7 -11 -9 0 -14 9 -3 15 1 15 9 0 8 -1 14 -1 14 -1
0 -7 -4 -14 -9z"/>
<path d="M12720 2301 c0 -5 7 -12 16 -15 14 -5 15 -4 4 9 -14 17 -20 19 -20 6z"/>
<path d="M13532 2301 c-11 -7 -10 -9 3 -14 9 -4 14 -3 10 2 -3 5 1 12 7 14 7
3 9 6 3 6 -5 0 -16 -3 -23 -8z"/>
<path d="M13152 2270 c7 -10 14 -18 15 -16 6 6 -9 36 -18 36 -5 0 -4 -9 3 -20z"/>
<path d="M13400 2275 c0 -8 4 -15 10 -15 5 0 7 7 4 15 -4 8 -8 15 -10 15 -2 0
-4 -7 -4 -15z"/>
<path d="M12760 2259 c0 -5 5 -7 10 -4 6 3 10 8 10 11 0 2 -4 4 -10 4 -5 0
-10 -5 -10 -11z"/>
<path d="M11845 2249 c-4 -6 -4 -13 -1 -16 3 -4 6 -1 6 6 0 8 7 11 15 7 8 -3
15 -1 15 4 0 13 -27 13 -35 -1z"/>
<path d="M12840 2256 c0 -2 7 -7 16 -10 8 -3 12 -2 9 4 -6 10 -25 14 -25 6z"/>
<path d="M12903 2254 c4 -4 2 -13 -5 -21 -8 -11 -8 -17 2 -26 10 -10 12 -9 7
6 -8 21 -4 21 31 1 21 -12 23 -13 9 -1 -24 20 -4 33 23 14 11 -8 19 -16 17
-18 -1 -2 3 1 9 8 6 7 13 10 16 7 3 -2 8 1 11 9 3 8 -1 14 -9 14 -8 0 -14 -4
-14 -9 0 -12 -28 -10 -32 3 -2 7 -19 13 -38 16 -18 2 -31 0 -27 -3z"/>
<path d="M13254 2253 c4 -7 2 -14 -3 -14 -6 -1 -15 -2 -20 -3 -6 0 -16 -8 -23
-16 -11 -12 -11 -12 2 -3 8 6 27 9 43 7 31 -3 35 7 10 27 -11 10 -14 10 -9 2z"/>
<path d="M12072 2234 c9 -9 21 -15 27 -13 6 2 -2 10 -17 17 -25 11 -25 11 -10
-4z"/>
<path d="M13069 2248 c-5 -16 -4 -46 2 -42 4 2 7 13 6 24 -1 17 -5 26 -8 18z"/>
<path d="M13120 2246 c0 -2 7 -7 16 -10 8 -3 12 -2 9 4 -6 10 -25 14 -25 6z"/>
<path d="M12656 2225 c-9 -26 -7 -32 5 -12 6 10 9 21 6 23 -2 3 -7 -2 -11 -11z"/>
<path d="M12682 2224 c2 -20 31 -28 35 -9 0 6 -4 9 -10 7 -5 -2 -14 3 -18 10
-6 9 -8 6 -7 -8z"/>
<path d="M13377 2226 c-4 -10 -1 -13 9 -9 15 6 19 23 5 23 -5 0 -11 -7 -14
-14z"/>
<path d="M13687 2229 c7 -7 15 -10 18 -7 3 3 -2 9 -12 12 -14 6 -15 5 -6 -5z"/>
<path d="M13901 2233 c-1 -17 16 -25 25 -12 4 7 3 9 -4 5 -5 -3 -13 0 -15 6
-4 9 -6 10 -6 1z"/>
<path d="M13096 2215 c4 -8 8 -15 10 -15 2 0 4 7 4 15 0 8 -4 15 -10 15 -5 0
-7 -7 -4 -15z"/>
<path d="M13300 2221 c0 -6 4 -13 10 -16 6 -3 7 1 4 9 -7 18 -14 21 -14 7z"/>
<path d="M12128 2213 c7 -3 16 -2 19 1 4 3 -2 6 -13 5 -11 0 -14 -3 -6 -6z"/>
<path d="M13170 2211 c0 -6 4 -13 10 -16 6 -3 7 1 4 9 -7 18 -14 21 -14 7z"/>
<path d="M13055 2180 c-3 -5 -1 -10 4 -10 6 0 11 5 11 10 0 6 -2 10 -4 10 -3
0 -8 -4 -11 -10z"/>
<path d="M12763 2167 c0 -8 6 -14 13 -14 7 0 10 6 7 14 -3 7 -8 13 -12 13 -4
0 -8 -6 -8 -13z"/>
<path d="M13083 2165 c0 -7 6 -11 14 -8 7 3 13 6 13 8 0 2 -6 5 -13 8 -8 3
-14 -1 -14 -8z"/>
<path d="M13706 2171 c8 -8 43 -8 38 0 -2 4 -13 7 -24 6 -10 -1 -17 -3 -14 -6z"/>
<path d="M12296 2155 c-9 -26 -7 -32 5 -12 6 10 9 21 6 23 -2 3 -7 -2 -11 -11z"/>
<path d="M12881 2144 c0 -11 3 -14 6 -6 3 7 2 16 -1 19 -3 4 -6 -2 -5 -13z"/>
<path d="M11976 2132 c-3 -5 1 -9 9 -9 8 0 12 4 9 9 -3 4 -7 8 -9 8 -2 0 -6
-4 -9 -8z"/>
<path d="M13738 2133 c7 -3 16 -2 19 1 4 3 -2 6 -13 5 -11 0 -14 -3 -6 -6z"/>
<path d="M6130 5020 c-8 -5 -19 -6 -25 -2 -5 3 -4 -2 4 -11 11 -13 17 -15 28
-6 11 10 12 8 7 -7 -8 -20 -6 -19 14 7 10 13 10 18 -1 22 -8 3 -20 1 -27 -3z"/>
<path d="M6643 5015 c0 -8 4 -15 9 -15 4 0 8 4 8 9 0 6 -4 12 -8 15 -5 3 -9
-1 -9 -9z"/>
<path d="M6675 5020 c-8 -13 5 -13 25 0 13 8 13 10 -2 10 -9 0 -20 -4 -23 -10z"/>
<path d="M6585 5000 c-13 -6 -15 -9 -5 -9 8 0 22 4 30 9 18 12 2 12 -25 0z"/>
<path d="M6380 4916 c0 -9 30 -14 35 -6 4 6 -3 10 -14 10 -12 0 -21 -2 -21 -4z"/>
<path d="M5238 2153 c7 -3 16 -2 19 1 4 3 -2 6 -13 5 -11 0 -14 -3 -6 -6z"/>
<path d="M5443 2143 c-17 -6 -17 -20 0 -20 8 0 14 6 14 14 0 7 -1 13 -1 12 -1
0 -7 -3 -13 -6z"/>
<path d="M12335 6051 c-3 -5 -1 -12 5 -16 5 -3 10 1 10 9 0 18 -6 21 -15 7z"/>
<path d="M19177 4985 c-4 -8 -2 -17 3 -20 6 -4 10 3 10 14 0 25 -6 27 -13 6z"/>
<path d="M16575 2260 c-3 -5 -2 -10 4 -10 5 0 13 5 16 10 3 6 2 10 -4 10 -5 0
-13 -4 -16 -10z"/>
<path d="M16387 2253 c-4 -3 -7 -11 -7 -17 0 -6 5 -5 12 2 6 6 9 14 7 17 -3 3
-9 2 -12 -2z"/>
<path d="M16175 2230 c-3 -5 1 -10 10 -10 9 0 13 5 10 10 -3 6 -8 10 -10 10
-2 0 -7 -4 -10 -10z"/>
<path d="M17270 2230 c0 -5 6 -10 14 -10 8 0 17 -8 19 -17 4 -17 5 -17 6 -1 0
10 -8 22 -19 28 -14 7 -20 7 -20 0z"/>
<path d="M16592 2218 c-16 -16 -15 -25 1 -25 7 0 13 9 13 19 0 21 1 21 -14 6z"/>
<path d="M16368 2209 c-3 -8 0 -23 8 -34 16 -21 18 -5 5 29 -6 16 -9 17 -13 5z"/>
<path d="M16627 2209 c7 -7 15 -10 18 -7 3 3 -2 9 -12 12 -14 6 -15 5 -6 -5z"/>
<path d="M17228 2214 c-3 -5 -4 -17 -2 -28 2 -14 -2 -17 -20 -14 -13 3 -23 0
-23 -8 0 -8 9 -9 30 -3 34 10 47 19 26 19 -10 0 -11 2 -2 8 7 4 9 13 4 21 -5
7 -11 9 -13 5z"/>
<path d="M16680 2190 c-9 -6 -10 -10 -3 -10 6 0 15 5 18 10 8 12 4 12 -15 0z"/>
<path d="M16126 2174 c-8 -22 -4 -25 11 -9 7 8 9 16 4 19 -5 3 -12 -1 -15 -10z"/>
<path d="M17268 2183 c7 -3 16 -2 19 1 4 3 -2 6 -13 5 -11 0 -14 -3 -6 -6z"/>
<path d="M16370 2136 c0 -2 7 -7 16 -10 8 -3 12 -2 9 4 -6 10 -25 14 -25 6z"/>
</g>
</svg>
